<svg width="174" height="28" viewBox="0 0 174 28" fill="none" xmlns="http://www.w3.org/2000/svg">
<path d="M51.9165 27.9639C48.6908 27.9639 46.1174 27.2176 44.1962 25.7249C42.2988 24.2082 41.184 22.0776 40.852 19.3331H45.2991C45.5126 20.922 46.2123 22.1619 47.3982 23.0526C48.5841 23.9193 50.1376 24.3527 52.0588 24.3527C53.6479 24.3527 54.8575 24.0638 55.6877 23.486C56.5415 22.8841 56.9684 22.0535 56.9684 20.9942C56.9684 20.0553 56.7075 19.297 56.1857 18.7192C55.6639 18.1414 54.7864 17.6719 53.553 17.3108L48.928 15.9024C46.5799 15.1802 44.8485 14.2292 43.7337 13.0495C42.6427 11.8699 42.0972 10.3893 42.0972 8.60773C42.0972 7.11509 42.4767 5.81505 43.2356 4.70761C43.9946 3.60017 45.0619 2.74551 46.4376 2.14364C47.837 1.54177 49.4617 1.24084 51.3117 1.24084C54.1578 1.24084 56.4229 1.95104 58.1069 3.37146C59.8146 4.7678 60.787 6.66971 61.0242 9.07719H56.5771C56.3162 7.6327 55.7232 6.57341 54.7982 5.89931C53.8732 5.20114 52.628 4.85206 51.0626 4.85206C49.687 4.85206 48.5959 5.12892 47.7895 5.68264C46.9831 6.23636 46.5799 6.99472 46.5799 7.95771C46.5799 8.75218 46.8171 9.42627 47.2914 9.97999C47.7895 10.5337 48.7027 11.0152 50.0309 11.4245L54.7271 12.869C57.0752 13.5671 58.7829 14.5181 59.8502 15.7218C60.9175 16.9256 61.4511 18.4543 61.4511 20.3081C61.4511 22.7637 60.6092 24.6536 58.9252 25.9777C57.2649 27.3018 54.9287 27.9639 51.9165 27.9639Z" fill="#2252A5"/>
<path d="M64.7515 27.6389V9.22164H69.2342V27.6389H64.7515ZM64.538 6.18821V1.16861H69.4121V6.18821H64.538Z" fill="#2252A5"/>
<path d="M75.2426 27.6389V7.52436C75.2426 5.50208 75.7881 3.96129 76.8791 2.902C77.9939 1.81863 79.6541 1.27695 81.8599 1.27695C82.358 1.27695 82.7731 1.30102 83.1051 1.34917C83.4372 1.39732 83.7574 1.46955 84.0657 1.56584V5.10484C83.8997 5.03262 83.6862 4.98447 83.4253 4.96039C83.1644 4.91224 82.8679 4.88817 82.5359 4.88817C81.5872 4.88817 80.8756 5.12892 80.4013 5.61041C79.9506 6.06784 79.7253 6.74193 79.7253 7.6327V27.6389H75.2426ZM71.9695 12.7968V9.22164H83.6744V12.7968H71.9695Z" fill="#2252A5"/>
<path d="M95.3428 28C93.1133 28 91.4649 27.4704 90.3976 26.4111C89.354 25.3277 88.8322 23.7147 88.8322 21.572V5.03262L93.3505 3.33534V21.6804C93.3505 22.5711 93.5877 23.2332 94.062 23.6665C94.5364 24.0999 95.2835 24.3166 96.3034 24.3166C96.7066 24.3166 97.0624 24.2925 97.3707 24.2443C97.7028 24.1721 98.0111 24.0878 98.2957 23.9915V27.5305C98.0111 27.675 97.6079 27.7833 97.0861 27.8556C96.5643 27.9519 95.9832 28 95.3428 28ZM85.3456 12.7968V9.22164H98.2957V12.7968H85.3456Z" fill="#2252A5"/>
<path d="M108.35 27.6389V1.63807H112.975V27.6389H108.35ZM125.107 27.6389V1.63807H129.732V27.6389H125.107ZM110.556 12.2551H127.206V15.9385H110.556V12.2551Z" fill="#2252A5"/>
<path d="M134.308 27.6389V9.22164H138.79V27.6389H134.308ZM134.094 6.18821V1.16861H138.968V6.18821H134.094Z" fill="#2252A5"/>
<path d="M143.549 27.6389V9.22164H147.925V13.6634H148.032V27.6389H143.549ZM148.032 18.033L147.57 13.6634C147.996 12.0986 148.72 10.9069 149.74 10.0883C150.76 9.26979 151.981 8.86052 153.404 8.86052C153.902 8.86052 154.258 8.90867 154.471 9.00496V13.3023C154.353 13.2542 154.187 13.2301 153.973 13.2301C153.76 13.206 153.499 13.194 153.191 13.194C151.459 13.194 150.167 13.5792 149.313 14.3496C148.459 15.12 148.032 16.3478 148.032 18.033Z" fill="#2252A5"/>
<path d="M165.177 28C163.256 28 161.572 27.5907 160.125 26.7722C158.702 25.9536 157.587 24.8221 156.781 23.3776C155.998 21.9331 155.607 20.272 155.607 18.3941C155.607 16.5163 155.998 14.8672 156.781 13.4468C157.587 12.0023 158.702 10.8828 160.125 10.0883C161.548 9.26979 163.208 8.86052 165.106 8.86052C166.908 8.86052 168.474 9.24571 169.802 10.0161C171.13 10.7624 172.162 11.8217 172.897 13.194C173.632 14.5662 174 16.1672 174 17.9969C174 18.334 173.988 18.6469 173.964 18.9358C173.941 19.2247 173.905 19.5136 173.858 19.8025H158.382V16.6246H170.407L169.482 17.4913C169.482 15.758 169.09 14.4579 168.308 13.5912C167.525 12.7245 166.434 12.2912 165.035 12.2912C163.517 12.2912 162.307 12.8208 161.406 13.8801C160.528 14.9394 160.089 16.4682 160.089 18.4664C160.089 20.4405 160.528 21.9572 161.406 23.0165C162.307 24.0517 163.576 24.5693 165.212 24.5693C166.161 24.5693 166.991 24.3888 167.703 24.0277C168.414 23.6665 168.936 23.1128 169.268 22.3665H173.502C172.909 24.0999 171.901 25.4721 170.478 26.4833C169.078 27.4944 167.311 28 165.177 28Z" fill="#2252A5"/>
<path d="M18.6437 25.5578C17.0655 28.3326 13.1198 28.3326 11.5416 25.5578L0.555469 6.24313C-1.02278 3.46841 0.950031 -2.80101e-07 4.10653 0L26.0788 1.94976e-06C29.2353 2.22986e-06 31.2081 3.46841 29.6298 6.24314L18.6437 25.5578Z" fill="#2252A5"/>
<path d="M31.8277 2.73251L22.9433 18.2468C22.232 19.4889 20.6635 19.9105 19.4399 19.1885L11.2836 14.3764L13.8595 9.87833L19.7998 13.3834L27.3966 0.117831L31.8277 2.73251Z" fill="#FF6F00"/>
</svg>
